<svg width="24" height="24" fill="none" xmlns="http://www.w3.org/2000/svg"><g clip-path="url(#clip0_2828_16)" fill="#D5DFF2"><path d="M8.564 3.84L1.252 0C.613.239 0 1.022 0 1.927v16.392c0 .717.352 1.364.942 1.758l5.625 3.568c1.345.915 3.277-.033 3.277-1.758V5.794c0-.83-.464-1.547-1.28-1.955zm-1.533 9.566a.703.703 0 11-1.406 0v-2.812a.703.703 0 111.406 0v2.812zm16.69-1.966L18.78 7.989a.703.703 0 00-1.2.497v2.108h-5.626a.703.703 0 00-.703.703v1.406c0 .388.315.703.703.703h5.625v2.108c0 .627.757.94 1.2.497l4.944-3.451a.703.703 0 000-1.12z"/><path d="M10.854 14.681V21h2.073A2.084 2.084 0 0015 18.91v-4.23h-4.146zM12.927 0H4l4.83 2.557.002.001.024.013c1.242.626 1.998 1.816 1.998 3.172v3.363H15V2.091C15 .938 14.07 0 12.927 0z"/></g><defs><clipPath id="clip0_2828_16"><path fill="#fff" d="M0 0h24v24H0z"/></clipPath></defs></svg>