<svg width="24" height="24" fill="none" xmlns="http://www.w3.org/2000/svg"><path d="M23.971 12.685L22.157 2.528A1.867 1.867 0 0020.314 1C20.206 1 4.423 3.737 4.423 3.737a1.85 1.85 0 00-1.52 2.141l.175.98h14.245c1.808 0 3.278 1.45 3.278 3.234v5.056l1.851-.322a1.85 1.85 0 001.52-2.141zm-4.775 3.233H0v4.234C0 21.172.839 22 1.873 22h15.45c1.035 0 1.873-.828 1.873-1.848v-4.234zm-13.62 4.417H2.39a.698.698 0 01-.703-.693c0-.383.315-.693.703-.693h3.186c.387 0 .702.31.702.693a.698.698 0 01-.702.693z" fill="#D5DFF2"/><path d="M.002 9.677h18.996C18.95 8.743 18.14 8 17.146 8H1.854C.86 8 .049 8.743.002 9.677zM0 11h19v3H0v-3z" fill="#D5DFF2"/></svg>