<svg width="24" height="24" fill="none" xmlns="http://www.w3.org/2000/svg"><g clip-path="url(#clip0_2940_5550)" fill="#D5DFF2"><path d="M23.467 2.833L12.17.021a.702.702 0 00-.34 0L.533 2.833a.703.703 0 000 1.365L11.83 7.011a.71.71 0 00.34 0l10.424-2.596v3.32a.703.703 0 101.406 0v-4.22a.703.703 0 00-.533-.682z"/><path d="M12.51 8.375a2.113 2.113 0 01-1.02 0L3.562 6.401v6.724h16.875V6.401L12.51 8.375zM24 15.235a.703.703 0 00-.703-.704H3.516A3.52 3.52 0 000 18.047a3.52 3.52 0 003.516 3.515h19.78a.703.703 0 000-1.406H3.517a2.112 2.112 0 01-2.11-2.11c0-1.162.947-2.108 2.11-2.108h19.78a.703.703 0 00.704-.704z"/><path d="M2.813 18.047c0 .388.315.703.703.703h19.078v-1.406H3.516a.704.704 0 00-.704.703z"/></g><defs><clipPath id="clip0_2940_5550"><path fill="#fff" d="M0 0h24v24H0z"/></clipPath></defs></svg>