<svg width="40" height="38" fill="none" xmlns="http://www.w3.org/2000/svg"><path d="M24.963 8.059a.683.683 0 00-.905.36.704.704 0 00.355.921c3.774 1.678 6.212 5.47 6.212 9.66s-2.438 7.982-6.213 9.66a.704.704 0 00-.354.92.687.687 0 00.905.361C29.238 28.041 32 23.746 32 19s-2.762-9.04-7.037-10.941z" fill="#5CB1FF"/><path d="M24.568 13.844a.667.667 0 00-.968.055.734.734 0 00.054 1.007c1.255 1.17 1.974 2.843 1.974 4.594 0 1.75-.72 3.425-1.974 4.594A.733.733 0 0023.6 25.1a.685.685 0 00.511.237.67.67 0 00.457-.181C26.114 23.716 27 21.655 27 19.5s-.886-4.218-2.432-5.656zm-4.555-3.767a.663.663 0 00-.715.061l-5.328 4.064H8.686a.7.7 0 00-.686.714v9.168a.7.7 0 00.686.714h5.284l5.328 4.064a.67.67 0 00.716.06.697.697 0 00.274-.262.734.734 0 00.101-.373V10.713a.735.735 0 00-.101-.373.698.698 0 00-.274-.263z" fill="#5CB1FF"/><rect x=".5" y=".5" width="39" height="37" rx="18.5" stroke="#5CB1FF"/></svg>