<svg width="20" height="24" fill="none" xmlns="http://www.w3.org/2000/svg"><path d="M18.666 20.801H1.34a.963.963 0 00-.96.96v1.28c0 .529.434.959.96.959h17.32a.962.962 0 00.958-.96v-1.28a.946.946 0 00-.952-.959zm-9.334-1.717a.958.958 0 001.043.21.943.943 0 00.31-.21l6.56-6.562a.966.966 0 000-1.358l-.907-.909a.966.966 0 00-1.36 0l-3.372 3.377V.959a.963.963 0 00-.96-.959h-1.28a.958.958 0 00-.959.96v12.675L5.031 10.26a.966.966 0 00-1.36 0l-.907.908a.966.966 0 000 1.359l6.568 6.558z" fill="#5CB1FF"/></svg>