<svg width="24" height="24" fill="none" xmlns="http://www.w3.org/2000/svg"><path d="M11.5 24a3.504 3.504 0 003.207-2.11H8.293A3.504 3.504 0 0011.5 24zm7.233-12.382v-1.54A7.274 7.274 0 0013.6 3.125V2.11C13.6.946 12.658 0 11.5 0c-1.158 0-2.1.946-2.1 2.11v1.015a7.274 7.274 0 00-5.133 6.953v1.54a11.07 11.07 0 01-3.072 7.677.705.705 0 00.505 1.19h19.6a.697.697 0 00.644-.428.706.706 0 00-.139-.762 11.067 11.067 0 01-3.072-7.677zM12.2 2.847a7.256 7.256 0 00-1.4 0v-.738c0-.387.314-.703.7-.703.386 0 .7.316.7.703v.738zm8.4 7.231c0 .388.313.703.7.703.387 0 .7-.315.7-.703 0-2.817-1.092-5.466-3.075-7.458a.698.698 0 00-.99 0 .705.705 0 000 .995 9.102 9.102 0 012.665 6.463zm-18.9.703c.387 0 .7-.315.7-.703 0-2.441.947-4.737 2.665-6.463a.705.705 0 000-.995.698.698 0 00-.99 0A10.502 10.502 0 001 10.078c0 .388.313.703.7.703z" fill="#D5DFF2"/></svg>