<svg width="24" height="24" fill="none" xmlns="http://www.w3.org/2000/svg"><path d="M13.135 11.934c0-.147-.051-.551-.456-.551h-.84v1.095h.84c.4 0 .456-.397.456-.544zm-6.472 1.978h1.168L7.247 11.8l-.584 2.112zm5.976-.488h-.8V15h.8c.426 0 .64-.242.64-.725v-.126c0-.483-.214-.725-.64-.725zM5.572 3.916h14.643A.78.78 0 0021 3.143V.773A.78.78 0 0020.215 0H5.572A1.56 1.56 0 004 1.549v.818a1.56 1.56 0 001.572 1.55z" fill="#D5DFF2"/><path d="M5.23 5.051A2.902 2.902 0 013 4v18.985c0 .56.446 1.015.997 1.015h16.006c.55 0 .997-.454.997-1.015V5.051H5.23zm3.645 10.655c-.169.1-.344.15-.526.15-.223 0-.356-.076-.397-.23l-.265-.99H6.043l-.265.99c-.042.154-.174.23-.398.23-.181 0-.357-.05-.525-.15-.17-.1-.286-.28-.238-.444l1.45-4.836c.132-.384.602-.412.794-.412.192 0 .657.046.795.412l1.457 4.836c.06.192-.07.343-.238.444zm5.076-1.554c0 .592-.141 1.024-.424 1.296-.283.272-.664.408-1.142.408h-1.73c-.414 0-.53-.272-.53-.372v-5.042c0-.121.09-.38.53-.38h1.598c1.039 0 1.558.47 1.558 1.41 0 .635-.22 1.05-.662 1.245.265.1.465.245.6.432.135.188.202.467.202.837v.166zm3.04.674c.518 0 .65-.466.685-.793.02-.248.22-.373.6-.373.485 0 .615.221.615.587 0 .513-.183.917-.549 1.213-.366.296-.835.444-1.406.444-.556 0-1.007-.151-1.352-.452-.346-.301-.518-.774-.518-1.42v-2.1c0-.644.172-1.117.518-1.418.345-.302.796-.452 1.352-.452.571 0 1.04.14 1.406.42.366.28.55.666.55 1.157 0 .379-.166.587-.608.587-.39 0-.593-.125-.608-.373-.016-.476-.247-.713-.694-.713-.467 0-.7.264-.7.792v2.1c0 .53.235.794.708.794z" fill="#D5DFF2"/></svg>