<svg width="24" height="24" fill="none" xmlns="http://www.w3.org/2000/svg"><path d="M6 18a2 2 0 100-4 2 2 0 000 4z" fill="#D5DFF2"/><path d="M20.772 4.986l-9.671-2.954c-.362-.11-.76.07-.887.424a.697.697 0 00.454.904l5.28 1.613H2.11C.944 4.973 0 5.91 0 7.066V9.44h5.672v-.771c0-.376.29-.7.669-.717a.7.7 0 01.737.697v.791H24V7.078a2.102 2.102 0 00-2.112-2.094l-1.116.002zM0 10.835v9.072C0 21.063.944 22 2.11 22h19.78c1.166 0 2.11-.937 2.11-2.093v-9.072H0zm6.375 8.188c-1.835 0-3.328-1.482-3.328-3.303 0-1.822 1.493-3.304 3.328-3.304 1.835 0 3.328 1.482 3.328 3.304 0 1.82-1.493 3.303-3.328 3.303zm13.875-.745h-7.5a.7.7 0 01-.703-.698.7.7 0 01.703-.697h7.5a.7.7 0 01.703.697.7.7 0 01-.703.698zm0-3.721h-7.5a.7.7 0 01-.703-.698.7.7 0 01.703-.698h7.5a.7.7 0 01.703.698.7.7 0 01-.703.697z" fill="#D5DFF2"/></svg>