<svg width="24" height="24" fill="none" xmlns="http://www.w3.org/2000/svg"><path d="M8.795 0H2.05C.919 0 0 .92 0 2.049v6.746c0 1.13.92 2.049 2.049 2.049h6.746c1.13 0 2.049-.92 2.049-2.049V2.05C10.844.919 9.924 0 8.795 0zm13.156 0h-6.746c-1.13 0-2.049.92-2.049 2.049v6.746c0 1.13.92 2.049 2.049 2.049h6.746c1.13 0 2.049-.92 2.049-2.049V2.05C24 .919 23.08 0 21.951 0zM8.795 13.156H2.05c-1.13 0-2.049.92-2.049 2.049v6.746A2.05 2.05 0 002.049 24h6.746c1.13 0 2.049-.92 2.049-2.049v-6.746c0-1.13-.92-2.049-2.049-2.049zm13.156 0h-6.746c-1.13 0-2.049.92-2.049 2.049v6.746c0 1.13.92 2.049 2.049 2.049h6.746c1.13 0 2.049-.92 2.049-2.049v-6.746c0-1.13-.92-2.049-2.049-2.049z" fill="#5CB1FF"/></svg>