<svg width="24" height="24" fill="none" xmlns="http://www.w3.org/2000/svg"><g clip-path="url(#clip0_2944_6830)" fill="#5CB1FF"><path d="M.702 18.328h18.376a.704.704 0 00.45-.162c.177-.148 4.203-3.612 4.449-11.088H4.24C3.997 13.864.29 17.054.251 17.086a.705.705 0 00.451 1.242zm22.595-15.47H19.78v-.702a.696.696 0 00-.703-.703.696.696 0 00-.703.703v.703h-3.563v-.703a.696.696 0 00-.703-.703.696.696 0 00-.703.703v.703H9.89v-.703a.696.696 0 00-.703-.703.696.696 0 00-.703.703v.703H4.968a.696.696 0 00-.703.703v2.11H24v-2.11a.696.696 0 00-.703-.703z"/><path d="M20.432 19.244a2.116 2.116 0 01-1.353.49H4.266v2.11c0 .389.314.703.703.703h18.329a.703.703 0 00.703-.703v-7.882c-1.356 3.326-3.248 5.013-3.569 5.282z"/></g><defs><clipPath id="clip0_2944_6830"><path fill="#fff" d="M0 0h24v24H0z"/></clipPath></defs></svg>