<svg width="24" height="24" viewBox="0 0 24 24" fill="none" xmlns="http://www.w3.org/2000/svg">
<g clip-path="url(#clip0_2868_1494)">
<path d="M13.7864 12L23.6301 2.15634C24.1233 1.66303 24.1233 0.863248 23.6301 0.369984C23.1368 -0.123328 22.3369 -0.123328 21.8437 0.369984L12 10.2136L2.15634 0.369984C1.66303 -0.123328 0.863248 -0.123328 0.369984 0.369984C-0.123281 0.863295 -0.123328 1.66307 0.369984 2.15634L10.2136 12L0.369984 21.8436C-0.123328 22.3369 -0.123328 23.1367 0.369984 23.63C0.863295 24.1233 1.66307 24.1232 2.15634 23.63L12 13.7863L21.8436 23.63C22.3369 24.1233 23.1367 24.1232 23.63 23.63C24.1232 23.1367 24.1232 22.3369 23.63 21.8436L13.7864 12Z" fill="white" fill-opacity="0.5"/>
</g>
<defs>
<clipPath id="clip0_2868_1494">
<rect width="24" height="24" fill="white"/>
</clipPath>
</defs>
</svg>
