<svg width="24" height="24" fill="none" xmlns="http://www.w3.org/2000/svg"><path d="M23.281 13.456a.71.71 0 00.71-.71V2.318a.71.71 0 00-.71-.71h-4.277v11.848h4.277zM.01 9.535c0 .901.485 1.692 1.207 2.124-.287.413-.44.904-.44 1.406a2.478 2.478 0 002.476 2.475h5.224a36.65 36.65 0 00-.531 2.954c-.397 2.966-.126 4.612.853 5.177.61.353 1.269.425 1.853.202.452-.172 1.062-.595 1.41-1.633l1.373-3.595c.696-1.72 2.828-3.525 4.15-4.523V1.294A22.951 22.951 0 009.968 0H4.275A2.478 2.478 0 001.8 2.475c0 .46.128.912.372 1.303A2.478 2.478 0 00.777 6.005c0 .502.152.993.439 1.406A2.476 2.476 0 00.009 9.535z" fill="#D5DFF2"/></svg>