<svg width="24" height="25" fill="none" xmlns="http://www.w3.org/2000/svg"><g clip-path="url(#clip0_2828_166)"><path d="M11.953 1.5C5.362 1.5 0 6.336 0 12.281c0 2.512.972 4.945 2.742 6.874a4.436 4.436 0 01-1.13 4.118c-.44.45-.129 1.227.497 1.227a7.665 7.665 0 005.37-2.217 13 13 0 004.474.78C18.544 23.063 24 18.226 24 12.28S18.544 1.5 11.953 1.5zM6.422 14.438c-1.163 0-2.11-.968-2.11-2.157s.947-2.156 2.11-2.156c1.163 0 2.11.967 2.11 2.156 0 1.19-.947 2.156-2.11 2.156zm5.625 0c-1.163 0-2.11-.968-2.11-2.157s.947-2.156 2.11-2.156c1.163 0 2.11.967 2.11 2.156 0 1.19-.947 2.156-2.11 2.156zm5.625 0c-1.163 0-2.11-.968-2.11-2.157s.947-2.156 2.11-2.156c1.163 0 2.11.967 2.11 2.156 0 1.19-.947 2.156-2.11 2.156z" fill="#5CB1FF"/></g><defs><clipPath id="clip0_2828_166"><path fill="#fff" transform="translate(0 .5)" d="M0 0h24v24H0z"/></clipPath></defs></svg>