<svg width="24" height="24" fill="none" xmlns="http://www.w3.org/2000/svg"><path fill-rule="evenodd" clip-rule="evenodd" d="M21 17.84V1.364c-2.423-.81-6.113-.258-7.796 1.59V20c1.916-1.64 5.04-2.974 7.796-2.16zM6.389 1.003c-.883 0-1.717.123-2.389.361v16.478c2.757-.815 5.88.52 7.796 2.159V2.953c-1.192-1.33-3.423-1.951-5.407-1.951z" fill="#fff"/><path fill-rule="evenodd" clip-rule="evenodd" d="M3.895 19.375c-.877.258-1.799-.435-1.786-1.345V3c-.59.181-1.164.41-1.718.681A.701.701 0 000 4.307v16.995a.695.695 0 00.592.69.71.71 0 00.327-.026c3.18-1.02 6.302-1.09 10.014-.214-1.558-1.554-4.513-3.135-7.038-2.377zM23.609 3.681c-.554-.272-1.128-.5-1.718-.68V18.03c.012.91-.91 1.602-1.786 1.345-2.525-.758-5.48.823-7.038 2.377 3.712-.877 6.833-.805 10.014.214a.706.706 0 00.843-.348.694.694 0 00.076-.316V4.306a.695.695 0 00-.391-.626z" fill="#fff"/></svg>