<svg width="24" height="24" fill="none" xmlns="http://www.w3.org/2000/svg"><g clip-path="url(#clip0_2935_3335)"><path d="M6.55 12c0-1.28.069-2.533.202-3.729H.592A12.032 12.032 0 00.004 12c0 .983.118 1.948.346 2.88h6.32c-.08-.936-.12-1.9-.12-2.88zm.27 4.285H.787a11.967 11.967 0 002.73 4.2 11.916 11.916 0 005.725 3.198c-.467-.648-.89-1.47-1.259-2.455-.531-1.421-.925-3.107-1.165-4.943zm10.237-9.42h5.792a12.009 12.009 0 00-2.367-3.35A11.917 11.917 0 0014.757.317c.467.648.89 1.47 1.259 2.455.448 1.199.798 2.587 1.04 4.093zm-10.114 0c.243-1.506.593-2.894 1.041-4.093.368-.985.792-1.807 1.26-2.455a11.916 11.916 0 00-5.726 3.198 12.01 12.01 0 00-2.367 3.35h5.792zm10.237 9.42c-.239 1.836-.633 3.522-1.164 4.943-.368.985-.792 1.807-1.26 2.455a11.916 11.916 0 005.726-3.198 11.967 11.967 0 002.73-4.2H17.18zm6.228-8.014h-6.16c.133 1.196.203 2.45.203 3.729 0 .98-.04 1.944-.12 2.88h6.319c.228-.932.346-1.897.346-2.88 0-1.286-.201-2.54-.588-3.729zm-7.645 8.014H8.237c.227 1.657.586 3.172 1.064 4.451C10.065 22.78 11.074 24 12 24c.926 0 1.935-1.22 2.699-3.264.478-1.279.837-2.794 1.064-4.45zm-7.396-9.42h7.266c-.225-1.326-.54-2.544-.934-3.601C13.935 1.22 12.926 0 11.999 0c-.925 0-1.934 1.22-2.698 3.264-.395 1.057-.709 2.275-.934 3.601zm7.467 1.406H8.166A32.258 32.258 0 007.955 12c0 .983.042 1.948.124 2.88h7.841c.083-.932.125-1.897.125-2.88 0-1.286-.072-2.54-.211-3.729z" fill="#D5DFF2"/></g><defs><clipPath id="clip0_2935_3335"><path fill="#fff" d="M0 0h24v24H0z"/></clipPath></defs></svg>