<svg width="24" height="24" fill="none" xmlns="http://www.w3.org/2000/svg"><g clip-path="url(#clip0_3127_1278)"><path d="M.719 10.544a.71.71 0 00-.71.71v10.428c0 .392.318.71.71.71h4.277V10.544H.72zm23.272 3.921c0-.901-.485-1.692-1.207-2.124.287-.413.44-.904.44-1.406a2.478 2.478 0 00-2.476-2.475h-5.224c.16-.726.379-1.814.531-2.954.397-2.967.126-4.612-.853-5.177-.61-.353-1.269-.425-1.853-.202-.452.172-1.062.595-1.41 1.633l-1.373 3.595c-.696 1.72-2.828 3.525-4.15 4.523v12.828A22.952 22.952 0 0014.032 24h5.693a2.478 2.478 0 002.103-3.778 2.478 2.478 0 001.395-2.227 2.46 2.46 0 00-.439-1.405 2.476 2.476 0 001.207-2.125z"/></g><defs><clipPath id="clip0_3127_1278"><path d="M0 0h24v24H0z"/></clipPath></defs></svg>