<svg width="24" height="24" fill="none" xmlns="http://www.w3.org/2000/svg"><path d="M11.953 1C5.362 1 0 5.836 0 11.781c0 2.512.972 4.945 2.742 6.874a4.436 4.436 0 01-1.13 4.118c-.44.45-.129 1.227.497 1.227a7.665 7.665 0 005.37-2.217 13 13 0 004.474.78C18.544 22.563 24 17.726 24 11.78S18.544 1 11.953 1zM6.422 13.938c-1.163 0-2.11-.968-2.11-2.157s.947-2.156 2.11-2.156c1.163 0 2.11.967 2.11 2.156 0 1.19-.947 2.156-2.11 2.156zm5.625 0c-1.163 0-2.11-.968-2.11-2.157s.947-2.156 2.11-2.156c1.163 0 2.11.967 2.11 2.156 0 1.19-.947 2.156-2.11 2.156zm5.625 0c-1.163 0-2.11-.968-2.11-2.157s.947-2.156 2.11-2.156c1.163 0 2.11.967 2.11 2.156 0 1.19-.947 2.156-2.11 2.156z" fill="#D5DFF2"/></svg>