<svg width="24" height="24" fill="none" xmlns="http://www.w3.org/2000/svg"><path d="M22.213 21.265c-.648-1.914-1.455-4.343-4.588-4.343h-1.697a6.357 6.357 0 001.329-1.406h.368A3.52 3.52 0 0021.141 12V9.187C21.14 4.147 17.04 0 12 0 6.844 0 2.79 4.285 2.86 9.306c-.002 1.549-.001.986-.001 2.694a3.52 3.52 0 003.515 3.516h.368c.363.54.822 1 1.329 1.406H6.375c-3.133 0-3.94 2.429-4.588 4.342C1.329 22.617 2.391 24 3.806 24h16.389c1.42 0 2.475-1.388 2.018-2.735zM5.743 8.485H4.97a2.08 2.08 0 00-.643.11c.323-4.23 3.79-7.189 7.674-7.189 4.068 0 7.405 3.206 7.705 7.199a2.082 2.082 0 00-.674-.12h-.774C17.902 5.328 15.25 2.812 12 2.812c-3.249 0-5.902 2.516-6.257 5.671zM12 22.124l-2.813-3.797h5.626L12 22.125zm0-5.203A4.928 4.928 0 017.078 12v-.703h2.11A3.502 3.502 0 0012 9.869a3.503 3.503 0 002.813 1.428h2.109V12a4.86 4.86 0 01-.494 2.11h-3.022a.703.703 0 00-.703.703.7.7 0 00.703.698h2.028A4.905 4.905 0 0112 16.92z" fill="#D5DFF2"/></svg>