<svg width="24" height="22" fill="none" xmlns="http://www.w3.org/2000/svg"><path d="M16.963.059a.683.683 0 00-.905.36.704.704 0 00.355.921c3.774 1.678 6.212 5.47 6.212 9.66s-2.438 7.982-6.213 9.66a.704.704 0 00-.354.92.687.687 0 00.905.361C21.238 20.041 24 15.746 24 11S21.238 1.96 16.963.059z"/><path d="M16.568 5.843a.667.667 0 00-.968.056.734.734 0 00.054 1.007c1.255 1.17 1.974 2.843 1.974 4.594 0 1.75-.72 3.425-1.974 4.594A.733.733 0 0015.6 17.1a.685.685 0 00.511.237.67.67 0 00.457-.181C18.114 15.717 19 13.656 19 11.5s-.886-4.218-2.432-5.657zm-4.555-3.766a.664.664 0 00-.715.061L5.97 6.202H.686A.7.7 0 000 6.916v9.168a.7.7 0 00.686.714H5.97l5.328 4.064a.67.67 0 00.716.06.697.697 0 00.274-.262.734.734 0 00.101-.373V2.713a.735.735 0 00-.101-.373.698.698 0 00-.274-.263z"/></svg>