<svg width="24" height="24" viewBox="0 0 24 24" fill="none" xmlns="http://www.w3.org/2000/svg">
<g clip-path="url(#clip0_2944_6830)">
<path d="M0.70208 18.3284H19.0779C19.2427 18.3284 19.402 18.2707 19.5283 18.1656C19.7048 18.0178 23.731 14.5543 23.9765 7.07788H4.24121C3.99665 13.8645 0.288765 17.0544 0.250232 17.0862C0.0243312 17.2771 -0.0587819 17.5889 0.0428476 17.8663C0.143774 18.143 0.406802 18.3284 0.70208 18.3284ZM23.2968 2.85894H19.781V2.15579C19.781 1.76202 19.4716 1.45263 19.0779 1.45263C18.6841 1.45263 18.3747 1.76202 18.3747 2.15579V2.85894H14.812V2.15579C14.812 1.76202 14.5027 1.45263 14.1089 1.45263C13.7151 1.45263 13.4057 1.76202 13.4057 2.15579V2.85894H9.88995V2.15579C9.88995 1.76202 9.58056 1.45263 9.18679 1.45263C8.79302 1.45263 8.48363 1.76202 8.48363 2.15579V2.85894H4.96785C4.57408 2.85894 4.26469 3.16833 4.26469 3.5621V5.67157H24V3.5621C24 3.16833 23.6906 2.85894 23.2968 2.85894Z" fill="#5CB1FF"/>
<path d="M20.4322 19.2438C20.0504 19.5617 19.5711 19.7348 19.0788 19.7348H4.26562V21.8442C4.26562 22.2329 4.58012 22.5474 4.96878 22.5474H23.2977C23.6864 22.5474 24.0009 22.2329 24.0009 21.8442V13.962C22.6452 17.288 20.7534 18.9749 20.4322 19.2438Z" fill="#5CB1FF"/>
</g>
<defs>
<clipPath id="clip0_2944_6830">
<rect width="24" height="24" fill="white"/>
</clipPath>
</defs>
</svg>
