<svg width="24" height="24" viewBox="0 0 24 24" fill="none" xmlns="http://www.w3.org/2000/svg">
<path d="M23.2812 13.4556C23.6734 13.4556 23.9912 13.1377 23.9912 12.7456V2.31787C23.9912 1.92576 23.6733 1.6079 23.2812 1.6079H19.0038V13.4556H23.2812ZM0.00944519 9.53498C0.00944519 10.4362 0.493711 11.2266 1.21568 11.6594C0.929388 12.0722 0.776253 12.5626 0.776836 13.0649C0.776836 14.4296 1.88712 15.5399 3.25179 15.5399H8.47638C8.31626 16.2655 8.09726 17.3544 7.94477 18.4942C7.54793 21.4605 7.81915 23.1056 8.79823 23.6714C9.40863 24.024 10.0668 24.0955 10.6514 23.873C11.103 23.7009 11.713 23.278 12.0605 22.2399L13.4337 18.6446C14.1298 16.9253 16.2617 15.1204 17.5838 14.1224V1.29375C15.1334 0.435184 12.5765 -3.8147e-06 9.9679 -3.8147e-06H4.27512C2.91045 -3.8147e-06 1.80016 1.11028 1.80016 2.47495C1.7996 2.93562 1.92839 3.3872 2.17188 3.77826C1.34684 4.18007 0.77693 5.02729 0.77693 6.00496C0.776344 6.50729 0.929482 6.99776 1.21577 7.41051C0.493711 7.84336 0.00944519 8.63372 0.00944519 9.53498Z" fill="#D5DFF2"/>
</svg>
