<svg width="20" height="24" viewBox="0 0 20 24" fill="none" xmlns="http://www.w3.org/2000/svg">
<path d="M18.6659 20.8011H1.3402C0.81106 20.8011 0.380859 21.2347 0.380859 21.7605V23.0407C0.380859 23.5698 0.814452 24 1.3402 24H18.6591C19.1882 24 19.6184 23.5664 19.6184 23.0407V21.7605C19.6287 21.2279 19.1951 20.8011 18.6659 20.8011ZM9.33221 19.0839C9.52 19.2717 9.7658 19.3673 10.0082 19.3673C10.134 19.3674 10.2586 19.3424 10.3747 19.2937C10.4908 19.2451 10.596 19.1738 10.6841 19.0839L17.2457 12.5223C17.6179 12.1502 17.6179 11.5426 17.2457 11.1636L16.3376 10.2555C15.9655 9.88333 15.3578 9.88333 14.9789 10.2555L11.6059 13.6319V0.959339C11.6059 0.430156 11.1723 0 10.6466 0H9.36635C8.83721 0 8.40701 0.42672 8.40701 0.959339V13.6353L5.03065 10.2589C4.6585 9.88677 4.04743 9.88677 3.6719 10.2589L2.76379 11.167C2.39169 11.5391 2.39169 12.1502 2.76379 12.5257L9.33221 19.0839Z" fill="#5CB1FF"/>
</svg>
