<svg width="24" height="25" viewBox="0 0 24 25" fill="none" xmlns="http://www.w3.org/2000/svg">
<g clip-path="url(#clip0_2828_166)">
<path d="M11.9531 1.5C5.36203 1.5 0 6.33613 0 12.2812C0 14.7927 0.972281 17.2262 2.74177 19.155C3.09197 20.6311 2.66691 22.1949 1.61222 23.273C1.17122 23.7239 1.48308 24.5 2.10938 24.5C4.113 24.5 6.04453 23.6977 7.47961 22.2827C8.89959 22.8007 10.402 23.0625 11.9531 23.0625C18.5442 23.0625 24 18.2264 24 12.2812C24 6.33613 18.5442 1.5 11.9531 1.5ZM6.42188 14.4375C5.25872 14.4375 4.3125 13.4703 4.3125 12.2812C4.3125 11.0922 5.25872 10.125 6.42188 10.125C7.58503 10.125 8.53125 11.0922 8.53125 12.2812C8.53125 13.4703 7.58503 14.4375 6.42188 14.4375ZM12.0469 14.4375C10.8837 14.4375 9.9375 13.4703 9.9375 12.2812C9.9375 11.0922 10.8837 10.125 12.0469 10.125C13.21 10.125 14.1562 11.0922 14.1562 12.2812C14.1562 13.4703 13.21 14.4375 12.0469 14.4375ZM17.6719 14.4375C16.5087 14.4375 15.5625 13.4703 15.5625 12.2812C15.5625 11.0922 16.5087 10.125 17.6719 10.125C18.835 10.125 19.7812 11.0922 19.7812 12.2812C19.7812 13.4703 18.835 14.4375 17.6719 14.4375Z" fill="#5CB1FF"/>
</g>
<defs>
<clipPath id="clip0_2828_166">
<rect width="24" height="24" fill="white" transform="translate(0 0.5)"/>
</clipPath>
</defs>
</svg>
