<svg width="24" height="25" viewBox="0 0 24 25" fill="none" xmlns="http://www.w3.org/2000/svg">
<path d="M11 10.5V14.5L15 12.5L11 10.5Z" fill="#5CB1FF"/>
<path d="M3.51562 21.5H20.4844C22.4228 21.5 24 19.9471 24 18.0385V6.96154C24 5.05294 22.4228 3.5 20.4844 3.5H3.51562C1.5772 3.5 0 5.05294 0 6.96154V18.0385C0 19.9471 1.5772 21.5 3.51562 21.5ZM9.1875 9.03846C9.18756 8.91483 9.22121 8.79346 9.28495 8.68695C9.3487 8.58043 9.44022 8.49265 9.55003 8.43269C9.77114 8.31098 10.0465 8.31708 10.2635 8.45162L15.8885 11.9132C15.9895 11.9754 16.0729 12.0619 16.1306 12.1646C16.1884 12.2672 16.2187 12.3826 16.2188 12.5C16.2187 12.6174 16.1884 12.7328 16.1306 12.8354C16.0729 12.9381 15.9895 13.0246 15.8885 13.0868L10.2635 16.5484C10.1517 16.6174 10.0225 16.6539 9.89062 16.6538C9.7732 16.6538 9.65578 16.6248 9.55003 16.5673C9.44022 16.5074 9.3487 16.4196 9.28495 16.3131C9.22121 16.2065 9.18756 16.0852 9.1875 15.9615V9.03846Z" fill="#5CB1FF"/>
</svg>
