<svg width="24" height="24" viewBox="0 0 24 24" fill="none" xmlns="http://www.w3.org/2000/svg">
<g clip-path="url(#clip0_2935_3335)">
<path d="M6.54911 12C6.54911 10.7201 6.6185 9.46717 6.75205 8.27108H0.591993C0.205215 9.45935 0.00390625 10.7142 0.00390625 12C0.00390625 12.9833 0.121852 13.9483 0.350058 14.8795H6.66864C6.58969 13.9444 6.54911 12.9801 6.54911 12ZM6.81949 16.2853H0.788475C1.38265 17.8427 2.30387 19.2713 3.51757 20.4853C5.11853 22.0869 7.09263 23.1791 9.24348 23.6827C8.77639 23.0348 8.35221 22.2128 7.98427 21.2284C7.45293 19.8069 7.05898 18.1209 6.81949 16.2853ZM17.0568 6.8653H22.8492C22.2672 5.63678 21.4719 4.50447 20.4824 3.51465C18.8814 1.91313 16.9073 0.820885 14.7565 0.317333C15.2236 0.965166 15.6478 1.78713 16.0157 2.7716C16.464 3.97088 16.8143 5.35857 17.0568 6.8653ZM6.9431 6.8653C7.1856 5.35857 7.53597 3.97088 7.98427 2.7716C8.35221 1.78718 8.77634 0.965166 9.24348 0.317333C7.09263 0.820885 5.11858 1.91313 3.51762 3.51465C2.52809 4.50447 1.73284 5.63678 1.15075 6.8653H6.9431ZM17.1804 16.2853C16.941 18.1209 16.547 19.8069 16.0157 21.2284C15.6477 22.2128 15.2236 23.0348 14.7565 23.6827C16.9073 23.1791 18.8814 22.0869 20.4823 20.4853C21.696 19.2713 22.6172 17.8427 23.2114 16.2853H17.1804ZM23.4079 8.27108H17.2478C17.3814 9.46722 17.4508 10.7201 17.4508 12C17.4508 12.98 17.4102 13.9444 17.3312 14.8795H23.6498C23.878 13.9483 23.996 12.9833 23.996 12C23.996 10.7142 23.7947 9.45935 23.4079 8.27108ZM15.7631 16.2853H8.23685C8.46364 17.9417 8.82306 19.4574 9.30107 20.7362C10.0649 22.7799 11.0739 24 12 24C12.9261 24 13.9351 22.7798 14.6989 20.7362C15.1769 19.4574 15.5363 17.9417 15.7631 16.2853ZM8.36693 6.8653H15.6331C15.4079 5.53931 15.0939 4.32059 14.6989 3.26377C13.935 1.22013 12.9261 0 11.9999 0C11.0738 0 10.0649 1.22013 9.30103 3.26377C8.90605 4.32059 8.59209 5.53931 8.36693 6.8653ZM15.8336 8.27108H8.16628C8.02729 9.46042 7.95489 10.7143 7.95489 12C7.95489 12.9833 7.99739 13.9479 8.0794 14.8795H15.9205C16.0025 13.9479 16.045 12.9833 16.045 12C16.045 10.7143 15.9726 9.46042 15.8336 8.27108Z" fill="#D5DFF2"/>
</g>
<defs>
<clipPath id="clip0_2935_3335">
<rect width="24" height="24" fill="white"/>
</clipPath>
</defs>
</svg>
