<svg width="24" height="24" viewBox="0 0 24 24" fill="none" xmlns="http://www.w3.org/2000/svg">
<g clip-path="url(#clip0_3127_1278)">
<path d="M0.718758 10.5444C0.326648 10.5444 0.00878906 10.8623 0.00878906 11.2544V21.6821C0.00878906 22.0742 0.326695 22.3921 0.718758 22.3921H4.99624V10.5444H0.718758ZM23.9906 14.465C23.9906 13.5638 23.5063 12.7734 22.7843 12.3406C23.0706 11.9278 23.2237 11.4374 23.2232 10.9351C23.2232 9.57038 22.1129 8.4601 20.7482 8.4601H15.5236C15.6837 7.73447 15.9027 6.64561 16.0552 5.50575C16.4521 2.53946 16.1809 0.894378 15.2018 0.328644C14.5914 -0.0239967 13.9332 -0.095528 13.3486 0.127035C12.897 0.299066 12.287 0.722019 11.9395 1.76007L10.5663 5.35542C9.87016 7.07466 7.73834 8.87958 6.41623 9.8776V22.7063C8.86657 23.5648 11.4235 24 14.0321 24H19.7249C21.0896 24 22.1998 22.8897 22.1998 21.525C22.2004 21.0644 22.0716 20.6128 21.8281 20.2217C22.6532 19.8199 23.2231 18.9727 23.2231 17.995C23.2237 17.4927 23.0705 17.0022 22.7842 16.5895C23.5063 16.1566 23.9906 15.3663 23.9906 14.465Z" fill="#D5DFF2"/>
</g>
<defs>
<clipPath id="clip0_3127_1278">
<rect width="24" height="24" fill="white"/>
</clipPath>
</defs>
</svg>
