<svg width="24" height="24" viewBox="0 0 24 24" fill="none" xmlns="http://www.w3.org/2000/svg">
<path d="M4.72763 24H19.2731C19.8756 24 20.364 23.5116 20.364 22.9091V10.5455C20.364 9.94298 19.8756 9.45455 19.2731 9.45455H18.1822V6.18182C18.1822 2.77316 15.409 0 12.0004 0C8.5917 0 5.81854 2.77316 5.81854 6.18182V9.45455H4.72763C4.12516 9.45455 3.63672 9.94298 3.63672 10.5455V22.9091C3.63672 23.5116 4.12516 24 4.72763 24ZM13.0913 17.0899V18.5455C13.0913 19.1479 12.6028 19.6364 12.0004 19.6364C11.3979 19.6364 10.9094 19.1479 10.9094 18.5455V17.0899C10.4681 16.7579 10.1822 16.23 10.1822 15.6364C10.1822 14.6338 10.9978 13.8182 12.0004 13.8182C13.0029 13.8182 13.8185 14.6338 13.8185 15.6364C13.8185 16.23 13.5326 16.7579 13.0913 17.0899ZM8.00035 6.18182C8.00035 3.97622 9.79475 2.18182 12.0004 2.18182C14.206 2.18182 16.0004 3.97622 16.0004 6.18182V9.45455H8.00035V6.18182Z" fill="#D5DFF2"/>
</svg>
