<svg width="24" height="24" viewBox="0 0 24 24" fill="none" xmlns="http://www.w3.org/2000/svg">
<path d="M14.492 11.0001C13.2629 11.9298 11.6999 12.4875 10.0002 12.4875C8.30053 12.4875 6.73745 11.9297 5.50812 11C2.8156 12.4576 1 15.183 1 18.2979V21.3465C1 21.7074 1.31251 22 1.69813 22H18.3021C18.6876 22 19 21.7074 19 21.3465V18.2979C19 15.1831 17.1845 12.4579 14.492 11.0001Z" fill="#D5DFF2"/>
<path d="M16 5.50003C16 2.46735 13.3085 0 9.99998 0C6.69164 0 4 2.46735 4 5.50003C4 8.53272 6.69165 11 9.99994 11C13.3085 11 16 8.53265 16 5.5L16 5.50003Z" fill="#D5DFF2"/>
</svg>
