<svg width="24" height="22" viewBox="0 0 24 22" fill="none" xmlns="http://www.w3.org/2000/svg">
<path fill-rule="evenodd" clip-rule="evenodd" d="M20.4844 17.5047V0.866027C18.0658 0.0474015 14.3823 0.60512 12.7031 2.47056V19.6851C14.6152 18.0298 17.7331 16.6819 20.4844 17.5047ZM5.89997 0.500917C5.01858 0.50087 4.18636 0.625136 3.51562 0.866027V17.5047C6.26723 16.682 9.3848 18.0297 11.2969 19.6851V2.4707C10.1078 1.12881 7.88067 0.501011 5.89997 0.500917Z" fill="#5CB1FF"/>
<path fill-rule="evenodd" clip-rule="evenodd" d="M3.8947 18.8587C3.01847 19.1178 2.09634 18.4205 2.10938 17.5045V2.37451C1.51942 2.55714 0.944935 2.78642 0.391359 3.0602C0.273858 3.11831 0.174945 3.20811 0.105789 3.31947C0.0366336 3.43083 -8.78578e-06 3.5593 1.58013e-09 3.69039V20.7978C-1.75731e-08 20.9087 0.0262054 21.018 0.0764781 21.1167C0.126751 21.2155 0.199666 21.301 0.289275 21.3663C0.378885 21.4315 0.482649 21.4746 0.592101 21.4921C0.701553 21.5096 0.813593 21.501 0.919078 21.467C4.09969 20.4407 7.22105 20.3687 10.9329 21.2515C9.37477 19.687 6.41953 18.0954 3.8947 18.8587ZM23.6086 3.0602C23.0551 2.78645 22.4806 2.55723 21.8906 2.3747V17.5045C21.9034 18.421 20.9816 19.1177 20.1052 18.8587C17.5803 18.0954 14.6253 19.687 13.0671 21.2516C16.779 20.3688 19.9004 20.4408 23.0809 21.467C23.1864 21.5011 23.2984 21.5097 23.4079 21.4922C23.5174 21.4747 23.6211 21.4316 23.7107 21.3663C23.8003 21.3011 23.8732 21.2156 23.9235 21.1168C23.9738 21.018 24 20.9087 24 20.7979V3.69039C24 3.5593 23.9634 3.43083 23.8942 3.31947C23.8251 3.20811 23.7261 3.11831 23.6086 3.0602Z" fill="#5CB1FF"/>
</svg>
