<svg width="24" height="24" viewBox="0 0 24 24" fill="none" xmlns="http://www.w3.org/2000/svg">
<g clip-path="url(#clip0_2892_4293)">
<path d="M20.9819 3.01809C19.0357 1.07184 16.4481 0 13.6957 0C10.9432 0 8.3557 1.07184 6.40945 3.01809C4.46325 4.9643 3.39136 7.55194 3.39136 10.3043C3.39136 13.0567 4.4632 15.6442 6.40945 17.5905C8.35565 19.5367 10.9433 20.6086 13.6957 20.6086C16.448 20.6086 19.0356 19.5368 20.9819 17.5905C22.9281 15.6443 23.9999 13.0567 23.9999 10.3043C23.9999 7.55194 22.9281 4.9643 20.9819 3.01809ZM5.58108 18.532C5.39619 18.347 5.21824 18.1552 5.04759 17.957L0.206156 22.7984C-0.0687187 23.0733 -0.0687187 23.5189 0.206156 23.7938C0.343641 23.9312 0.523781 24 0.703875 24C0.883969 24 1.06416 23.9313 1.20155 23.7938L6.03581 18.9595C5.88005 18.8215 5.7284 18.679 5.58108 18.532Z" fill="#D5DFF2"/>
</g>
<defs>
<clipPath id="clip0_2892_4293">
<rect width="24" height="24" fill="white"/>
</clipPath>
</defs>
</svg>
