<svg width="24" height="22" viewBox="0 0 24 22" fill="none" xmlns="http://www.w3.org/2000/svg">
<path d="M16.963 0.0586453C16.6151 -0.0959488 16.21 0.0656384 16.058 0.419489C15.9061 0.77334 16.0648 1.18565 16.4126 1.34025C20.1866 3.01822 22.6253 6.80988 22.6255 10.9998C22.6255 15.1899 20.1867 18.9817 16.4123 20.6597C16.0644 20.8143 15.9057 21.2266 16.0577 21.5805C16.1705 21.8433 16.423 22 16.6879 22C16.7797 22 16.8731 21.9812 16.9627 21.9413C21.2377 20.0407 24 15.7459 24 10.9997C23.9998 6.25388 21.2376 1.95923 16.963 0.0586453Z" fill="#5CB1FF"/>
<path d="M16.5684 5.84348C16.2862 5.58074 15.8527 5.60561 15.6001 5.89912C15.3475 6.19273 15.3714 6.64365 15.6536 6.90644C16.9086 8.07506 17.6284 9.74934 17.6284 11.5C17.6284 13.2507 16.9086 14.9248 15.6536 16.0936C15.3714 16.3563 15.3475 16.8073 15.6001 17.1008C15.6643 17.1757 15.7431 17.2355 15.8312 17.2765C15.9193 17.3174 16.0147 17.3385 16.1112 17.3384C16.2741 17.3384 16.4376 17.2784 16.5684 17.1565C18.1137 15.7176 19 13.6558 19 11.5C19 9.34408 18.1137 7.28236 16.5684 5.84348ZM12.0135 2.077C11.9004 2.01743 11.7737 1.99161 11.6474 2.00239C11.5211 2.01318 11.4002 2.06016 11.298 2.13811L5.97014 6.20224H0.685755C0.307036 6.20224 0 6.52157 0 6.91557V16.0843C0 16.4782 0.307036 16.7976 0.685755 16.7976H5.97014L11.298 20.8618C11.4002 20.9398 11.5211 20.9868 11.6474 20.9976C11.7738 21.0084 11.9005 20.9825 12.0135 20.9229C12.1265 20.8633 12.2215 20.7723 12.2878 20.66C12.3542 20.5477 12.3893 20.4184 12.3893 20.2866V2.71334C12.3893 2.58151 12.3542 2.45225 12.2879 2.33992C12.2215 2.22759 12.1265 2.13659 12.0135 2.077Z" fill="#5CB1FF"/>
</svg>
