<svg width="40" height="38" viewBox="0 0 40 38" fill="none" xmlns="http://www.w3.org/2000/svg">
<path d="M24.963 8.05865C24.6151 7.90405 24.21 8.06564 24.058 8.41949C23.9061 8.77334 24.0648 9.18565 24.4126 9.34025C28.1866 11.0182 30.6253 14.8099 30.6255 18.9998C30.6255 23.1899 28.1867 26.9817 24.4123 28.6597C24.0644 28.8143 23.9057 29.2266 24.0577 29.5805C24.1705 29.8433 24.423 30 24.6879 30C24.7797 30 24.8731 29.9812 24.9627 29.9413C29.2377 28.0407 32 23.7459 32 18.9997C31.9998 14.2539 29.2376 9.95923 24.963 8.05865Z" fill="#5CB1FF"/>
<path d="M24.5684 13.8435C24.2862 13.5807 23.8527 13.6056 23.6001 13.8991C23.3475 14.1927 23.3714 14.6436 23.6536 14.9064C24.9086 16.0751 25.6284 17.7493 25.6284 19.5C25.6284 21.2507 24.9086 22.9248 23.6536 24.0936C23.3714 24.3563 23.3475 24.8073 23.6001 25.1008C23.6643 25.1757 23.7431 25.2355 23.8312 25.2765C23.9193 25.3174 24.0147 25.3385 24.1112 25.3384C24.2741 25.3384 24.4376 25.2784 24.5684 25.1565C26.1137 23.7176 27 21.6558 27 19.5C27 17.3441 26.1137 15.2824 24.5684 13.8435ZM20.0135 10.077C19.9004 10.0174 19.7737 9.99161 19.6474 10.0024C19.5211 10.0132 19.4002 10.0602 19.298 10.1381L13.9701 14.2022H8.68576C8.30704 14.2022 8 14.5216 8 14.9156V24.0843C8 24.4782 8.30704 24.7976 8.68576 24.7976H13.9701L19.298 28.8618C19.4002 28.9398 19.5211 28.9868 19.6474 28.9976C19.7738 29.0084 19.9005 28.9825 20.0135 28.9229C20.1265 28.8633 20.2215 28.7723 20.2878 28.66C20.3542 28.5477 20.3893 28.4184 20.3893 28.2866V10.7133C20.3893 10.5815 20.3542 10.4523 20.2879 10.3399C20.2215 10.2276 20.1265 10.1366 20.0135 10.077Z" fill="#5CB1FF"/>
<rect x="0.5" y="0.5" width="39" height="37" rx="18.5" stroke="#5CB1FF"/>
</svg>
