<svg width="24" height="24" viewBox="0 0 24 24" fill="none" xmlns="http://www.w3.org/2000/svg">
<path d="M8.79506 0H2.04877C0.919078 0 0 0.919078 0 2.04877V8.79506C0 9.92475 0.919078 10.8438 2.04877 10.8438H8.79506C9.92475 10.8438 10.8438 9.92475 10.8438 8.79506V2.04877C10.8438 0.919078 9.92475 0 8.79506 0ZM21.9512 0H15.2049C14.0753 0 13.1562 0.919078 13.1562 2.04877V8.79506C13.1562 9.92475 14.0753 10.8438 15.2049 10.8438H21.9512C23.0809 10.8438 24 9.92475 24 8.79506V2.04877C24 0.919078 23.0809 0 21.9512 0ZM8.79506 13.1562H2.04877C0.919078 13.1562 0 14.0753 0 15.2049V21.9512C0 23.0809 0.919078 24 2.04877 24H8.79506C9.92475 24 10.8438 23.0809 10.8438 21.9512V15.2049C10.8438 14.0753 9.92475 13.1562 8.79506 13.1562ZM21.9512 13.1562H15.2049C14.0753 13.1562 13.1562 14.0753 13.1562 15.2049V21.9512C13.1562 23.0809 14.0753 24 15.2049 24H21.9512C23.0809 24 24 23.0809 24 21.9512V15.2049C24 14.0753 23.0809 13.1562 21.9512 13.1562Z" fill="#5CB1FF"/>
</svg>
