<svg width="24" height="18" viewBox="0 0 24 18" fill="none" xmlns="http://www.w3.org/2000/svg">
<path d="M21.7914 0.0125732H2.20861C0.990797 0.0125732 0 1.00332 0 2.22268C0 3.4405 0.990797 4.43129 2.20861 4.43129H21.7914C23.0092 4.43129 24 3.4405 24 2.22268C24 1.00332 23.0092 0.0125732 21.7914 0.0125732ZM21.7914 6.7907H2.20861C0.990797 6.7907 0 7.78145 0 9.00081C0 10.2186 0.990797 11.2094 2.20861 11.2094H21.7914C23.0092 11.2094 24 10.2186 24 9.00081C24 7.78145 23.0092 6.7907 21.7914 6.7907ZM21.7914 13.5688H2.20861C0.990797 13.5688 0 14.5596 0 15.7789C0 16.9967 0.990797 17.9875 2.20861 17.9875H21.7914C23.0092 17.9875 24 16.9967 24 15.7789C24 14.5596 23.0092 13.5688 21.7914 13.5688Z" fill="#D5DFF2"/>
</svg>
